<?xml version="1.0" standalone="no"?>
<!DOCTYPE svg PUBLIC "-//W3C//DTD SVG 20010904//EN"
 "http://www.w3.org/TR/2001/REC-SVG-20010904/DTD/svg10.dtd">
<svg version="1.0" xmlns="http://www.w3.org/2000/svg"
 width="489.000000pt" height="489.000000pt" viewBox="0 0 489.000000 489.000000"
 preserveAspectRatio="xMidYMid meet">

<g transform="translate(0.000000,489.000000) scale(0.100000,-0.100000)"
fill="#000000" stroke="none">
<path d="M1025 4520 c-28 -11 -62 -46 -80 -80 -13 -26 -15 -240 -13 -1872 l3
-1843 23 -33 c19 -26 88 -65 353 -197 l330 -165 1232 0 1233 0 44 23 c27 13
50 35 62 57 17 33 18 113 18 1870 l0 1835 -23 40 c-21 38 -42 50 -355 208
l-332 167 -1238 -1 c-680 0 -1246 -4 -1257 -9z m505 -679 c0 -214 4 -400 9
-413 14 -36 60 -77 102 -90 69 -20 108 0 231 119 l108 106 108 -106 c123 -119
162 -139 231 -119 42 13 88 54 102 90 5 13 9 199 9 413 l0 389 450 0 450 0 0
-1650 0 -1650 -1050 0 -1050 0 0 1650 0 1650 150 0 150 0 0 -389z m600 198 l0
-190 -47 38 c-41 34 -52 38 -103 38 -51 0 -62 -4 -103 -38 l-47 -38 0 190 0
191 150 0 150 0 0 -191z m1655 19 l145 -73 0 -1627 c0 -896 -2 -1628 -5 -1628
-3 0 -70 33 -150 72 l-145 73 0 1627 c0 896 2 1628 5 1628 3 0 70 -33 150 -72z"/>
</g>
</svg>
